<?xml version="1.0" encoding="UTF-8"?>
<svg id="Layer_2" data-name="Layer 2" xmlns="http://www.w3.org/2000/svg" viewBox="0 0 1495.39 226.91">
  <defs>
    <style>
      .cls-1 {
        fill: #2be1fc;
      }

      .cls-2 {
        fill: #2c81fd;
      }

      .cls-3 {
        fill: #27323f;
      }
    </style>
  </defs>
  <g id="_Слой_1" data-name="Слой 1">
    <g>
      <g>
        <path class="cls-2" d="M219.24,109.35l-.03,2.22c-1.16,48.63-41.1,87.83-90.03,87.83-13.91,0-27.09-3.17-38.86-8.82l-55.17,14.77,14.45-53.88c-6.36-11.99-10.09-25.54-10.44-39.91v-2.22h37.77c0,10.01,2.84,19.37,7.74,27.33l-6.74,25.11-.27,1.06,1.06-.27,26.11-7.01c7.28,3.87,15.56,6.06,24.35,6.06,28.82,0,52.28-23.46,52.28-52.28h37.78Z"/>
        <g>
          <path class="cls-1" d="M24.73,113.32L0,84.75,74.57,20.21c31.14-26.95,78.1-26.95,109.24,0l74.57,64.54-24.73,28.57-74.57-64.54c-17.04-14.75-42.75-14.75-59.79,0L24.73,113.32Z"/>
          <circle class="cls-1" cx="129.2" cy="107.24" r="31.49"/>
        </g>
      </g>
      <path class="cls-3" d="M373.29,75.17c-6.51-3.46-14.4-5.19-23.66-5.19h-29.68V24.11h-15.57v157.14h15.57v-95.69h29.68c8.99,0,15.99,2.46,20.96,7.37,4.98,4.91,7.47,11.73,7.47,20.45v67.88h15.57v-67.88c0-9.14-1.76-16.92-5.29-23.35-3.53-6.43-8.55-11.38-15.05-14.84Z"/>
      <path class="cls-3" d="M498.07,84c-4.43-5.05-9.79-9.06-16.09-12.04-6.3-2.98-13.46-4.46-21.48-4.46-10.11,0-19.2,2.49-27.3,7.47-8.1,4.98-14.5,11.8-19.2,20.45-4.71,8.65-7.06,18.58-7.06,29.79s2.42,21.25,7.26,30.1c4.84,8.86,11.45,15.81,19.82,20.86,8.37,5.06,17.75,7.58,28.12,7.58,7.61,0,14.56-1.28,20.86-3.84,6.29-2.56,11.73-5.95,16.29-10.17,4.57-4.22,7.95-8.83,10.17-13.81l-13.28-7.06c-3.46,5.81-7.96,10.66-13.5,14.53-5.54,3.87-12.39,5.81-20.55,5.81-7.06,0-13.67-1.8-19.82-5.4-6.16-3.6-11-8.68-14.53-15.26-2.84-5.3-4.25-11.38-4.35-18.16h87.49c.27-1.8.48-3.56.62-5.29.14-1.73.21-3.28.21-4.67,0-6.65-1.18-13.11-3.53-19.41-2.36-6.3-5.75-11.97-10.17-17.02ZM441.29,87.42c5.88-3.59,12.28-5.39,19.2-5.39s13.14,1.76,18.68,5.29c5.53,3.53,9.79,8.3,12.77,14.32,2.13,4.32,3.14,9.08,3.1,14.22h-71.32c.52-4.91,1.71-9.41,3.77-13.39,3.32-6.44,7.92-11.45,13.81-15.05Z"/>
      <path class="cls-3" d="M566.34,161.83l-36.42-91.84h-16.81l44.5,111.34-4.02,9.47c-3.46,8.02-6.99,13.45-10.59,16.29-3.6,2.83-8.79,4.25-15.57,4.25-2.22,0-4.4-.17-6.54-.52-2.15-.35-3.91-.59-5.29-.72v14.53c2.21.83,4.46,1.42,6.75,1.77,2.28.34,4.53.52,6.75.52,7.34,0,13.56-1.49,18.68-4.46,5.12-2.98,9.37-6.88,12.77-11.73,3.39-4.85,6.19-9.96,8.41-15.36l50.86-125.38h-17.23l-36.23,91.84Z"/>
      <g>
        <path class="cls-3" d="M710.2,71.23c-6.44-3.59-13.81-5.4-22.11-5.4s-15.05,1.77-21.07,5.29c-4.65,2.73-8.27,6.45-10.9,11.12v-13.92h-25.53v112.92h27.19v-66.22c0-4.98.97-9.27,2.91-12.87,1.94-3.59,4.63-6.4,8.09-8.41,3.46-2,7.4-3.01,11.83-3.01s8.54,1,11.93,3.01c3.39,2.01,6.05,4.81,7.99,8.41,1.94,3.6,2.9,7.89,2.9,12.87v66.22h27.2v-72.65c0-8.44-1.8-15.88-5.4-22.31-3.6-6.44-8.62-11.45-15.05-15.05Z"/>
        <path class="cls-3" d="M841.49,82.23c-4.71-5.12-10.42-9.13-17.12-12.04-6.72-2.9-14.5-4.36-23.35-4.36-10.52,0-20.03,2.57-28.54,7.68-8.51,5.12-15.22,12.07-20.13,20.86-4.91,8.79-7.37,18.86-7.37,30.2s2.42,20.89,7.26,29.89c4.84,9,11.62,16.12,20.34,21.38,8.72,5.26,18.89,7.89,30.51,7.89,7.75,0,14.84-1.18,21.28-3.53,6.43-2.35,12-5.61,16.71-9.76,4.7-4.15,8.16-8.93,10.38-14.32l-22-10.8c-2.49,4.43-5.92,7.96-10.27,10.59-4.36,2.63-9.65,3.94-15.88,3.94s-11.73-1.45-16.5-4.36c-4.77-2.91-8.37-7.02-10.79-12.35-1.48-3.25-2.34-6.84-2.7-10.69h81.27c.55-1.52.93-3.32,1.14-5.4.21-2.08.31-4.08.31-6.02,0-7.61-1.24-14.7-3.73-21.27-2.49-6.57-6.09-12.42-10.8-17.54ZM785.86,92.51c4.43-2.84,9.48-4.26,15.15-4.26s11.03,1.45,15.26,4.36c4.22,2.9,7.26,6.85,9.14,11.83.85,2.27,1.34,4.7,1.54,7.26h-53.07c.46-2.39,1.05-4.68,1.92-6.75,2.28-5.47,5.64-9.62,10.07-12.45Z"/>
        <rect class="cls-3" x="872.42" y="26.6" width="27.19" height="29.06"/>
        <rect class="cls-3" x="872.42" y="68.32" width="27.19" height="112.92"/>
        <path class="cls-3" d="M1004.85,81.35c-3.55-4.23-7.66-7.65-12.35-10.23-6.44-3.53-13.88-5.29-22.31-5.29-10.38,0-19.65,2.39-27.82,7.16-8.17,4.77-14.6,11.31-19.31,19.62-4.7,8.3-7.06,17.78-7.06,28.43s2.35,20,7.06,28.44c4.7,8.44,11.21,15.09,19.51,19.93,8.3,4.85,17.71,7.26,28.23,7.26,8.31,0,15.7-1.73,22.21-5.19,3.97-2.11,7.39-4.92,10.38-8.26v12.41c0,5.54-1.18,10.28-3.53,14.22-2.36,3.95-5.64,6.95-9.86,9.03-4.22,2.08-9.1,3.11-14.63,3.11-7.2,0-13.25-1.63-18.17-4.88-4.91-3.26-8.2-7.51-9.86-12.77l-25.33,9.55c2.35,6.64,6.13,12.42,11.32,17.33,5.19,4.91,11.38,8.75,18.58,11.52,7.2,2.77,15.01,4.15,23.46,4.15,10.79,0,20.31-2.22,28.54-6.65,8.24-4.43,14.74-10.52,19.51-18.27,4.77-7.75,7.16-16.54,7.16-26.36v-107.31h-25.74v13.03ZM999.66,137.03c-2.49,4.57-5.92,8.13-10.28,10.69-4.36,2.56-9.44,3.84-15.26,3.84s-10.97-1.31-15.46-3.94c-4.5-2.63-8.03-6.23-10.59-10.8-2.57-4.57-3.84-9.75-3.84-15.57s1.28-11.03,3.84-15.67c2.56-4.64,6.12-8.27,10.69-10.9,4.57-2.63,9.69-3.95,15.36-3.95s10.69,1.32,15.05,3.95c4.36,2.63,7.81,6.26,10.38,10.9,2.56,4.64,3.84,9.86,3.84,15.67s-1.24,11.21-3.73,15.78Z"/>
        <path class="cls-3" d="M1126.74,73.72c-7.27-3.59-15.95-5.39-26.05-5.39h-24.29V24.11h-27.19v157.14h27.19v-88.63h24.29c6.5,0,11.69,1.9,15.57,5.71,3.87,3.81,5.81,8.96,5.81,15.46v67.46h27.2v-68.71c0-9.14-1.94-16.99-5.81-23.56-3.88-6.57-9.44-11.65-16.71-15.26Z"/>
        <path class="cls-3" d="M1258.86,73.72c-8.58-5.26-18.2-7.89-28.85-7.89-8.72,0-16.4,1.7-23.04,5.09-4.54,2.32-8.38,5.31-11.62,8.89V24.11h-27.19v157.14h25.53v-12.85c3.65,4.37,8.16,7.88,13.6,10.46,6.85,3.25,14.35,4.88,22.52,4.88,10.93,0,20.68-2.59,29.27-7.78,8.58-5.19,15.36-12.28,20.34-21.28,4.98-8.99,7.47-18.96,7.47-29.89s-2.53-21.03-7.57-29.89c-5.06-8.85-11.87-15.91-20.45-21.17ZM1254.61,142.43c-2.7,5.12-6.47,9.13-11.32,12.04-4.85,2.9-10.38,4.36-16.6,4.36s-11.32-1.45-16.09-4.36c-4.77-2.91-8.51-6.92-11.21-12.04-2.7-5.12-4.05-11-4.05-17.65s1.35-12.35,4.05-17.54c2.7-5.19,6.43-9.24,11.21-12.14,4.77-2.91,10.14-4.36,16.09-4.36s11.76,1.49,16.6,4.46c4.84,2.98,8.62,6.99,11.32,12.04,2.69,5.05,4.05,10.9,4.05,17.54s-1.35,12.53-4.05,17.65Z"/>
        <path class="cls-3" d="M1388.81,73.51c-9-5.12-19.03-7.68-30.1-7.68s-21.31,2.57-30.31,7.68c-9,5.12-16.16,12.11-21.48,20.96-5.33,8.86-7.99,18.96-7.99,30.31s2.66,21.45,7.99,30.31c5.32,8.85,12.52,15.85,21.59,20.96,9.06,5.12,19.13,7.68,30.2,7.68s20.89-2.56,29.89-7.68c8.99-5.12,16.19-12.11,21.59-20.96s8.1-18.96,8.1-30.31-2.67-21.62-7.99-30.41c-5.33-8.79-12.49-15.74-21.48-20.86ZM1385.79,142.32c-2.69,5.19-6.36,9.24-11,12.14-4.64,2.9-10,4.36-16.09,4.36s-11.7-1.45-16.4-4.36c-4.7-2.91-8.41-6.95-11.11-12.14-2.69-5.19-4.05-11.03-4.05-17.54s1.35-12.49,4.05-17.54c2.7-5.05,6.4-9.06,11.11-12.04s10.17-4.46,16.4-4.46,11.45,1.49,16.09,4.46c4.64,2.98,8.31,6.99,11,12.04,2.7,5.05,4.05,10.9,4.05,17.54s-1.35,12.35-4.05,17.54Z"/>
        <path class="cls-3" d="M1432.08,97.55v83.7h27.19v-86.11c0-1.39,1.13-2.52,2.52-2.52h33.6v-24.29h-34.09c-16.14,0-29.22,13.08-29.22,29.22Z"/>
      </g>
    </g>
  </g>
</svg>