<?xml version="1.0" encoding="UTF-8"?>
<svg id="Layer_2" data-name="Layer 2" xmlns="http://www.w3.org/2000/svg" viewBox="0 0 431.61 343.03">
  <defs>
    <style>
      .cls-1 {
        fill: #2be1fc;
      }

      .cls-2 {
        fill: #2c81fd;
      }
    </style>
  </defs>
  <g id="_Слой_1" data-name="Слой 1">
    <g>
      <path class="cls-2" d="M366.22,182.66l-.05,3.71c-1.94,81.22-68.66,146.72-150.38,146.72-23.23,0-45.25-5.29-64.91-14.74l-92.16,24.68,24.14-89.99c-10.62-20.02-16.86-42.67-17.45-66.67v-3.71h63.1c0,16.72,4.75,32.36,12.93,45.65l-11.26,41.95-.45,1.76,1.76-.45,43.62-11.71c12.16,6.46,25.99,10.12,40.68,10.12,48.14,0,87.33-39.19,87.33-87.33h63.1Z"/>
      <g>
        <path class="cls-1" d="M41.31,189.3L0,141.57,124.57,33.76c52.01-45.02,130.46-45.02,182.48,0l124.57,107.81-41.31,47.73-124.57-107.8c-28.47-24.64-71.4-24.64-99.87,0l-124.57,107.8Z"/>
        <circle class="cls-1" cx="215.81" cy="179.14" r="52.6"/>
      </g>
    </g>
  </g>
</svg>